<svg xmlns="http://www.w3.org/2000/svg" width="1320" height="940" viewBox="0 0 1320 940"><defs>
        <marker id="arr" viewBox="0 0 10 10" refX="9" refY="5" markerWidth="8" markerHeight="8" orient="auto-start-reverse">
          <path d="M0,0 L10,5 L0,10 z" fill="#64748b"/></marker>
        <marker id="arrs" viewBox="0 0 10 10" refX="1" refY="5" markerWidth="8" markerHeight="8" orient="auto-start-reverse">
          <path d="M10,0 L0,5 L10,10 z" fill="#64748b"/></marker>
        </defs><rect x="0" y="0" width="1320" height="940" fill="#ffffff"/><text x="660" y="44" font-family="Sarabun, 'Noto Sans Thai', sans-serif" font-size="26" fill="#4f46e5" text-anchor="middle" font-weight="700">แผนภาพยูสเคส (Use Case Diagram)</text><text x="660" y="72" font-family="Sarabun, 'Noto Sans Thai', sans-serif" font-size="16" fill="#475569" text-anchor="middle" font-weight="400">ระบบจองคิวและจัดการให้บริการทำเล็บออนไลน์ — 2 ผู้ใช้งาน (Actor)</text><rect x="330" y="110" width="660" height="790" rx="16" ry="16" fill="#fbfbff" stroke="#94a3b8" stroke-width="2"/><text x="660.0" y="144" font-family="Sarabun, 'Noto Sans Thai', sans-serif" font-size="16" fill="#475569" text-anchor="middle" font-weight="700">ระบบจองคิวและจัดการให้บริการทำเล็บออนไลน์</text><circle cx="120" cy="442" r="12" fill="#fff" stroke="#4f46e5" stroke-width="2.5"/><line x1="120" y1="454" x2="120" y2="482" stroke="#4f46e5" stroke-width="2.5"/><line x1="102" y1="464" x2="138" y2="464" stroke="#4f46e5" stroke-width="2.5"/><line x1="120" y1="482" x2="105" y2="508" stroke="#4f46e5" stroke-width="2.5"/><line x1="120" y1="482" x2="135" y2="508" stroke="#4f46e5" stroke-width="2.5"/><text x="120" y="528.0" font-family="Sarabun, 'Noto Sans Thai', sans-serif" font-size="15" fill="#1e293b" text-anchor="middle" font-weight="700">ลูกค้า</text><circle cx="1200" cy="442" r="12" fill="#fff" stroke="#4f46e5" stroke-width="2.5"/><line x1="1200" y1="454" x2="1200" y2="482" stroke="#4f46e5" stroke-width="2.5"/><line x1="1182" y1="464" x2="1218" y2="464" stroke="#4f46e5" stroke-width="2.5"/><line x1="1200" y1="482" x2="1185" y2="508" stroke="#4f46e5" stroke-width="2.5"/><line x1="1200" y1="482" x2="1215" y2="508" stroke="#4f46e5" stroke-width="2.5"/><text x="1200" y="528.0" font-family="Sarabun, 'Noto Sans Thai', sans-serif" font-size="15" fill="#1e293b" text-anchor="middle" font-weight="700">ผู้ดูแลร้าน</text><ellipse cx="490" cy="175" rx="120" ry="32" fill="#eef2ff" stroke="#6366f1" stroke-width="2"/><text x="490" y="180" font-family="Sarabun, 'Noto Sans Thai', sans-serif" font-size="13.5" fill="#1e293b" text-anchor="middle" font-weight="400">เข้าสู่ระบบผ่าน LINE (LIFF)</text><ellipse cx="490" cy="273" rx="120" ry="32" fill="#eef2ff" stroke="#6366f1" stroke-width="2"/><text x="490" y="278" font-family="Sarabun, 'Noto Sans Thai', sans-serif" font-size="13.5" fill="#1e293b" text-anchor="middle" font-weight="400">ดูรายการบริการ</text><ellipse cx="490" cy="371" rx="120" ry="32" fill="#eef2ff" stroke="#6366f1" stroke-width="2"/><text x="490" y="376" font-family="Sarabun, 'Noto Sans Thai', sans-serif" font-size="13.5" fill="#1e293b" text-anchor="middle" font-weight="400">เลือกบริการหลายรายการ</text><ellipse cx="490" cy="469" rx="120" ry="32" fill="#eef2ff" stroke="#6366f1" stroke-width="2"/><text x="490" y="474" font-family="Sarabun, 'Noto Sans Thai', sans-serif" font-size="13.5" fill="#1e293b" text-anchor="middle" font-weight="400">ดูเวลาว่าง (slot)</text><ellipse cx="490" cy="567" rx="120" ry="32" fill="#eef2ff" stroke="#6366f1" stroke-width="2"/><text x="490" y="572" font-family="Sarabun, 'Noto Sans Thai', sans-serif" font-size="13.5" fill="#1e293b" text-anchor="middle" font-weight="400">จองคิว</text><ellipse cx="490" cy="665" rx="120" ry="32" fill="#eef2ff" stroke="#6366f1" stroke-width="2"/><text x="490" y="670" font-family="Sarabun, 'Noto Sans Thai', sans-serif" font-size="13.5" fill="#1e293b" text-anchor="middle" font-weight="400">ดู / ยกเลิกการจองของตน</text><ellipse cx="490" cy="763" rx="120" ry="32" fill="#eef2ff" stroke="#6366f1" stroke-width="2"/><text x="490" y="768" font-family="Sarabun, 'Noto Sans Thai', sans-serif" font-size="13.5" fill="#1e293b" text-anchor="middle" font-weight="400">รับการแจ้งเตือน</text><ellipse cx="830" cy="168" rx="120" ry="32" fill="#eef2ff" stroke="#6366f1" stroke-width="2"/><text x="830" y="173" font-family="Sarabun, 'Noto Sans Thai', sans-serif" font-size="13.5" fill="#1e293b" text-anchor="middle" font-weight="400">เข้าสู่ระบบผู้ดูแล</text><ellipse cx="830" cy="256" rx="120" ry="32" fill="#eef2ff" stroke="#6366f1" stroke-width="2"/><text x="830" y="261" font-family="Sarabun, 'Noto Sans Thai', sans-serif" font-size="13.5" fill="#1e293b" text-anchor="middle" font-weight="400">จัดการบริการ</text><ellipse cx="830" cy="344" rx="120" ry="32" fill="#eef2ff" stroke="#6366f1" stroke-width="2"/><text x="830" y="349" font-family="Sarabun, 'Noto Sans Thai', sans-serif" font-size="13.5" fill="#1e293b" text-anchor="middle" font-weight="400">จัดการช่าง</text><ellipse cx="830" cy="432" rx="120" ry="32" fill="#eef2ff" stroke="#6366f1" stroke-width="2"/><text x="830" y="437" font-family="Sarabun, 'Noto Sans Thai', sans-serif" font-size="13.5" fill="#1e293b" text-anchor="middle" font-weight="400">จัดการตารางงาน / วันหยุด</text><ellipse cx="830" cy="520" rx="120" ry="32" fill="#eef2ff" stroke="#6366f1" stroke-width="2"/><text x="830" y="525" font-family="Sarabun, 'Noto Sans Thai', sans-serif" font-size="13.5" fill="#1e293b" text-anchor="middle" font-weight="400">ดูรายการจองทั้งหมด</text><ellipse cx="830" cy="608" rx="120" ry="32" fill="#eef2ff" stroke="#6366f1" stroke-width="2"/><text x="830" y="613" font-family="Sarabun, 'Noto Sans Thai', sans-serif" font-size="13.5" fill="#1e293b" text-anchor="middle" font-weight="400">อัปเดตสถานะคิว</text><ellipse cx="830" cy="696" rx="120" ry="32" fill="#eef2ff" stroke="#6366f1" stroke-width="2"/><text x="830" y="701" font-family="Sarabun, 'Noto Sans Thai', sans-serif" font-size="13.5" fill="#1e293b" text-anchor="middle" font-weight="400">บันทึกผลบริการ</text><ellipse cx="830" cy="784" rx="120" ry="32" fill="#eef2ff" stroke="#6366f1" stroke-width="2"/><text x="830" y="789" font-family="Sarabun, 'Noto Sans Thai', sans-serif" font-size="13.5" fill="#1e293b" text-anchor="middle" font-weight="400">ดูรายงานสรุป</text><line x1="150" y1="470" x2="370" y2="175" stroke="#64748b" stroke-width="1.6"/><line x1="150" y1="470" x2="370" y2="273" stroke="#64748b" stroke-width="1.6"/><line x1="150" y1="470" x2="370" y2="371" stroke="#64748b" stroke-width="1.6"/><line x1="150" y1="470" x2="370" y2="469" stroke="#64748b" stroke-width="1.6"/><line x1="150" y1="470" x2="370" y2="567" stroke="#64748b" stroke-width="1.6"/><line x1="150" y1="470" x2="370" y2="665" stroke="#64748b" stroke-width="1.6"/><line x1="150" y1="470" x2="370" y2="763" stroke="#64748b" stroke-width="1.6"/><line x1="1170" y1="470" x2="950" y2="168" stroke="#64748b" stroke-width="1.6"/><line x1="1170" y1="470" x2="950" y2="256" stroke="#64748b" stroke-width="1.6"/><line x1="1170" y1="470" x2="950" y2="344" stroke="#64748b" stroke-width="1.6"/><line x1="1170" y1="470" x2="950" y2="432" stroke="#64748b" stroke-width="1.6"/><line x1="1170" y1="470" x2="950" y2="520" stroke="#64748b" stroke-width="1.6"/><line x1="1170" y1="470" x2="950" y2="608" stroke="#64748b" stroke-width="1.6"/><line x1="1170" y1="470" x2="950" y2="696" stroke="#64748b" stroke-width="1.6"/><line x1="1170" y1="470" x2="950" y2="784" stroke="#64748b" stroke-width="1.6"/><line x1="460" y1="539" x2="460" y2="497" stroke="#0ea5e9" stroke-width="1.8" stroke-dasharray="6 4" marker-end="url(#arr)"/><rect x="425.0625" y="502.5" width="69.875" height="18.5" rx="4" fill="#ffffff" opacity="0.9"/><text x="460" y="515" font-family="Sarabun, 'Noto Sans Thai', sans-serif" font-size="12.5" fill="#0ea5e9" text-anchor="middle" font-weight="400">«include»</text></svg>